<?xml version="1.0" encoding="utf-8"?>
<!-- Generator: Adobe Illustrator 25.0.1, SVG Export Plug-In . SVG Version: 6.00 Build 0)  -->
<svg xmlns="http://www.w3.org/2000/svg" xmlns:xlink="http://www.w3.org/1999/xlink" version="1.1" id="Layer_1" x="0px" y="0px" viewBox="0 0 764 224" style="enable-background:new 0 0 764 224;" xml:space="preserve">
<style type="text/css">
	.st0{fill-rule:evenodd;clip-rule:evenodd;fill:url(#SVGID_1_);}
	.st1{fill:#141515;}
	.st2{fill-rule:evenodd;clip-rule:evenodd;fill:#FEFEFE;}
	.st3{fill-rule:evenodd;clip-rule:evenodd;fill:url(#SVGID_2_);}
	.st4{fill-rule:evenodd;clip-rule:evenodd;fill:url(#SVGID_3_);}
	.st5{fill-rule:evenodd;clip-rule:evenodd;fill:url(#SVGID_4_);}
	.st6{fill-rule:evenodd;clip-rule:evenodd;fill:url(#SVGID_5_);}
	.st7{fill-rule:evenodd;clip-rule:evenodd;fill:url(#SVGID_6_);}
	.st8{fill-rule:evenodd;clip-rule:evenodd;fill:url(#SVGID_7_);}
	.st9{fill-rule:evenodd;clip-rule:evenodd;fill:url(#SVGID_8_);}
	.st10{fill:#FFFFFF;}
	.st11{fill-rule:evenodd;clip-rule:evenodd;fill:url(#SVGID_9_);}
	.st12{fill-rule:evenodd;clip-rule:evenodd;fill:url(#SVGID_10_);}
</style>
<g>
	<g>
		
			<linearGradient id="SVGID_1_" gradientUnits="userSpaceOnUse" x1="261.5" y1="1485.85" x2="502.2" y2="1485.85" gradientTransform="matrix(1 0 0 1 0 -1374)">
			<stop offset="0" style="stop-color:#E4E4E4"/>
			<stop offset="1" style="stop-color:#5C5C5C"/>
		</linearGradient>
		<rect x="261.5" y="0.3" class="st0" width="240.7" height="223.1"/>
		<path class="st1" d="M502.5,223.7H261.2V0h241.3V223.7z M261.8,223.1h240.1V0.6H261.8V223.1z"/>
	</g>
	<g>
		<rect x="269.2" y="7.5" class="st2" width="225.3" height="208.7"/>
		<path class="st1" d="M494.8,216.5H268.9V7.2h225.9V216.5z M269.5,215.9h224.7V7.8H269.5V215.9z"/>
	</g>
	<g>
		
			<linearGradient id="SVGID_2_" gradientUnits="userSpaceOnUse" x1="1.4" y1="1486.15" x2="242.1" y2="1486.15" gradientTransform="matrix(1 0 0 1 0 -1374)">
			<stop offset="0" style="stop-color:#E4E4E4"/>
			<stop offset="1" style="stop-color:#5C5C5C"/>
		</linearGradient>
		<rect x="1.4" y="0.6" class="st3" width="240.7" height="223.1"/>
		<path class="st1" d="M242.4,224H1.1V0.3h241.3V224z M1.7,223.4h240.1V0.9H1.7V223.4z"/>
	</g>
	<g>
		
			<linearGradient id="SVGID_3_" gradientUnits="userSpaceOnUse" x1="523" y1="1485.85" x2="763.7" y2="1485.85" gradientTransform="matrix(1 0 0 1 0 -1374)">
			<stop offset="0" style="stop-color:#E4E4E4"/>
			<stop offset="1" style="stop-color:#5C5C5C"/>
		</linearGradient>
		<rect x="523" y="0.3" class="st4" width="240.7" height="223.1"/>
		<path class="st1" d="M764,223.7H522.7V0H764V223.7z M523.3,223.1h240.1V0.6H523.3V223.1z"/>
	</g>
	<g>
		<rect x="530.8" y="7.5" class="st2" width="225.3" height="208.7"/>
		<path class="st1" d="M756.4,216.5H530.5V7.2h225.9V216.5z M531.1,215.9h224.7V7.8H531.1V215.9z"/>
	</g>
	<g>
		<rect x="9.1" y="7.8" class="st2" width="225.3" height="208.7"/>
		<path class="st1" d="M234.7,216.8H8.8V7.5h225.9V216.8z M9.4,216.2h224.7V8.1H9.4V216.2z"/>
	</g>
	<g>
		<g>
			
				<radialGradient id="SVGID_4_" cx="61.3478" cy="1490.265" r="55.8601" fx="83.7704" fy="1458.9241" gradientTransform="matrix(1 0 0 1 0 -1374)" gradientUnits="userSpaceOnUse">
				<stop offset="0" style="stop-color:#FF765F"/>
				<stop offset="1" style="stop-color:#FF0000"/>
			</radialGradient>
			<path class="st5" d="M13.5,141.2c-3-26.9,33.1-113.7,76.4-80c14.4,11.3,50.5,136.1-39,115.5C31.9,172.3,16.4,168.1,13.5,141.2     L13.5,141.2z"/>
			<path class="st1" d="M69.3,179.3c-5.6,0-11.8-0.8-18.5-2.3c-17.8-4.1-34.6-8-37.6-35.7l0,0C11.1,122,28.7,72.2,55.1,57.4     c11.7-6.6,23.5-5.3,35,3.6c9.6,7.5,29.2,66.1,14,98C97.6,172.5,85.9,179.3,69.3,179.3z M70,53.8c-4.8,0-9.7,1.4-14.6,4.1     c-26.2,14.7-43.7,64.2-41.6,83.3v0c2.9,27.3,19.6,31.2,37.2,35.3c26.4,6.1,44.1,0.1,52.6-17.7c15.1-31.7-4.3-89.8-13.8-97.3     C83.2,56.3,76.6,53.8,70,53.8z"/>
		</g>
	</g>
	<g>
		<g>
			
				<radialGradient id="SVGID_5_" cx="182.2107" cy="1488.9226" r="53.6981" fx="188.8435" fy="1464.233" gradientTransform="matrix(1 0 0 1 0 -1374)" gradientUnits="userSpaceOnUse">
				<stop offset="0" style="stop-color:#5F95FF"/>
				<stop offset="1" style="stop-color:#0016FF"/>
			</radialGradient>
			<path class="st6" d="M137.8,128.3c-3.1-27.7,21.5-100.4,66.2-65.5c14.9,11.6,53.6,109.4-24.1,113.5     C159.8,177.3,140.9,156.1,137.8,128.3L137.8,128.3z"/>
			<path class="st1" d="M178.5,176.6c-19.8,0-38-21.3-41-48.3l0,0c-1.1-10,1.4-25,6.3-38.4c5.9-16,14.5-27.8,24.2-33.2     c11.1-6.2,23.3-4.2,36.2,5.8c4.7,3.7,12.2,16.3,17.6,33.3c3.5,11.2,8.5,32.7,2.8,50.9c-5.8,18.5-20.8,28.5-44.6,29.8     C179.5,176.6,179,176.6,178.5,176.6z M181.1,53.8c-4.4,0-8.7,1.2-12.8,3.5c-9.6,5.3-18.1,17-23.9,32.9     c-4.9,13.3-7.4,28.3-6.3,38.1l0,0c3,27.3,21.8,48.8,41.8,47.7c23.5-1.2,38.4-11.1,44.1-29.4c10-31.9-11.2-76.6-20.2-83.6     C195.9,56.9,188.3,53.8,181.1,53.8z"/>
		</g>
	</g>
	<g>
		<path class="st1" d="M62.5,94.6l-0.9-3.1h-4.7L56,94.6h-3l4.6-12.9h3.3l4.6,12.9H62.5z M60.9,89.2c-0.9-2.8-1.4-4.3-1.5-4.7    c-0.1-0.4-0.2-0.7-0.2-0.9c-0.2,0.8-0.8,2.6-1.7,5.6H60.9L60.9,89.2z"/>
	</g>
	<g>
		<path class="st1" d="M167.5,80.2h4c1.8,0,3.2,0.3,4,0.8s1.2,1.3,1.2,2.5c0,0.8-0.2,1.4-0.5,1.9s-0.8,0.8-1.4,0.9v0.1    c0.8,0.2,1.4,0.5,1.8,1s0.5,1.2,0.5,2c0,1.2-0.4,2.1-1.3,2.7c-0.9,0.7-2,1-3.5,1h-4.8V80.2L167.5,80.2z M170.3,85.3h1.6    c0.7,0,1.3-0.1,1.6-0.3c0.3-0.2,0.5-0.6,0.5-1.1s-0.2-0.8-0.5-1.1c-0.4-0.2-0.9-0.3-1.7-0.3h-1.4v2.8H170.3z M170.3,87.5v3.4h1.8    c0.8,0,1.3-0.1,1.7-0.4s0.5-0.7,0.5-1.3c0-1.1-0.8-1.6-2.3-1.6L170.3,87.5L170.3,87.5z"/>
	</g>
	<g>
		<path class="st1" d="M104.6,42.4h-2.7l2.2-10.6H101l0.5-2.3h8.9l-0.5,2.3h-3.1L104.6,42.4z"/>
		<path class="st1" d="M114.1,46.3h-2.8l-1,2h-1.9l4.5-8.6h2.2l0.9,8.6h-1.7L114.1,46.3z M114,44.8l-0.2-2.1c0-0.5-0.1-1-0.1-1.5V41    c-0.2,0.5-0.4,1-0.6,1.5l-1.1,2.3C112,44.8,114,44.8,114,44.8z"/>
		<path class="st1" d="M122.3,38.5L128,36l-5.7-2.8v-2.1l8.4,4.4v1.3l-8.4,3.9C122.3,40.7,122.3,38.5,122.3,38.5z"/>
		<path class="st1" d="M141.1,42.4h-2.7l2.2-10.6h-3.1l0.5-2.3h8.9l-0.5,2.3h-3.1L141.1,42.4z"/>
		<path class="st1" d="M150.2,39.8c0.9,0,1.6,0.2,2,0.5c0.5,0.3,0.7,0.8,0.7,1.4c0,0.6-0.2,1.1-0.5,1.5s-0.8,0.6-1.4,0.8l0,0    c0.4,0.1,0.7,0.3,0.9,0.6s0.4,0.6,0.4,1.1c0,0.9-0.3,1.6-0.9,2.1c-0.6,0.5-1.4,0.7-2.5,0.7h-3.1l1.8-8.6L150.2,39.8L150.2,39.8z     M148,46.9h1.1c0.5,0,0.8-0.1,1.1-0.3s0.4-0.5,0.4-0.9c0-0.6-0.4-0.9-1.1-0.9h-1L148,46.9z M148.8,43.2h0.9c0.5,0,0.8-0.1,1.1-0.3    c0.2-0.2,0.4-0.5,0.4-0.8c0-0.5-0.3-0.8-1-0.8h-0.9L148.8,43.2z"/>
	</g>
	<g>
		<g>
			
				<radialGradient id="SVGID_6_" cx="336.6478" cy="1485.7642" r="55.8596" fx="349.3286" fy="1469.4839" gradientTransform="matrix(1 0 0 1 0 -1374)" gradientUnits="userSpaceOnUse">
				<stop offset="0" style="stop-color:#FF765F"/>
				<stop offset="1" style="stop-color:#FF0000"/>
			</radialGradient>
			<path class="st7" d="M288.8,136.7c-3-26.9,33.1-113.7,76.4-80c14.4,11.2,50.5,136.1-39,115.5     C307.2,167.9,291.8,163.6,288.8,136.7L288.8,136.7z"/>
			<path class="st1" d="M344.6,174.8c-5.6,0-11.8-0.8-18.5-2.3c-17.7-4-34.5-7.8-37.6-35.7c-2.1-19.2,15.5-69.1,41.9-83.8     c11.7-6.6,23.5-5.3,35,3.6c9.6,7.5,29.2,65.9,14,97.9C372.9,168,361.3,174.8,344.6,174.8z M289.1,136.7     c3.1,27.5,19.6,31.3,37.2,35.3c26.4,6.1,44.1,0.1,52.6-17.8c15.1-31.8-4.3-89.8-13.9-97.2c-11.3-8.8-22.8-10-34.3-3.5     C304.5,68.1,287,117.6,289.1,136.7z"/>
		</g>
	</g>
	<g>
		<g>
			
				<radialGradient id="SVGID_7_" cx="427.8107" cy="1484.4718" r="53.6739" fx="438.7431" fy="1460.6837" gradientTransform="matrix(1 0 0 1 0 -1374)" gradientUnits="userSpaceOnUse">
				<stop offset="0" style="stop-color:#5F95FF"/>
				<stop offset="1" style="stop-color:#0016FF"/>
			</radialGradient>
			<path class="st8" d="M383.4,123.9c-3.1-27.8,21.5-100.4,66.2-65.5c14.9,11.6,53.6,109.4-24.1,113.4     C405.3,172.9,386.4,151.7,383.4,123.9L383.4,123.9z"/>
			<path class="st1" d="M424,172.1c-19.8,0-38-21.2-40.9-48.2l0,0c-1.1-10,1.4-25.1,6.3-38.4c5.9-16,14.5-27.8,24.2-33.2     c11.1-6.2,23.3-4.2,36.2,5.9c4.7,3.7,12.2,16.3,17.6,33.3c3.5,11.2,8.5,32.7,2.8,50.9c-5.8,18.5-20.8,28.5-44.6,29.7     C425,172.1,424.5,172.1,424,172.1z M426.7,49.4c-4.4,0-8.7,1.1-12.8,3.5c-9.6,5.3-18,17-23.9,32.9c-4.9,13.3-7.4,28.3-6.3,38.2     l0,0c3,27.4,21.7,48.8,41.8,47.6c23.5-1.2,38.4-11.1,44.1-29.3c10-31.9-11.2-76.6-20.2-83.6C441.5,52.5,433.9,49.4,426.7,49.4z"/>
		</g>
	</g>
	<g>
		<path class="st1" d="M338.1,89.9l-0.9-3.1h-4.7l-0.9,3.1h-2.9l4.6-12.9h3.3l4.6,12.9H338.1z M336.5,84.6c-0.9-2.8-1.4-4.3-1.5-4.7    c-0.1-0.4-0.2-0.7-0.2-0.9c-0.2,0.8-0.8,2.6-1.7,5.6H336.5z"/>
	</g>
	<g>
		<path class="st1" d="M413.1,75.5h4c1.8,0,3.2,0.3,4,0.8s1.2,1.3,1.2,2.5c0,0.8-0.2,1.4-0.5,1.9s-0.8,0.8-1.4,0.9v0.1    c0.8,0.2,1.4,0.5,1.8,1s0.5,1.2,0.5,2c0,1.2-0.4,2.1-1.3,2.7s-2,1-3.5,1h-4.8L413.1,75.5L413.1,75.5z M415.8,80.6h1.6    c0.7,0,1.3-0.1,1.6-0.3c0.3-0.2,0.5-0.6,0.5-1.1s-0.2-0.8-0.5-1.1c-0.4-0.2-0.9-0.3-1.7-0.3h-1.4L415.8,80.6L415.8,80.6z     M415.8,82.8v3.4h1.8c0.8,0,1.3-0.1,1.7-0.4c0.4-0.3,0.5-0.7,0.5-1.3c0-1.1-0.8-1.6-2.3-1.6L415.8,82.8L415.8,82.8z"/>
	</g>
	<g>
		<g>
			
				<linearGradient id="SVGID_8_" gradientUnits="userSpaceOnUse" x1="333.1" y1="1516.9774" x2="441.2" y2="1516.9774" gradientTransform="matrix(1 0 0 1 0 -1374)">
				<stop offset="0" style="stop-color:#FF371F"/>
				<stop offset="8.550000e-02" style="stop-color:#F73626"/>
				<stop offset="0.2192" style="stop-color:#E1333A"/>
				<stop offset="0.3844" style="stop-color:#BC2E5A"/>
				<stop offset="0.5748" style="stop-color:#8A2886"/>
				<stop offset="0.7864" style="stop-color:#491FBF"/>
				<stop offset="1" style="stop-color:#0016FF"/>
			</linearGradient>
			<path class="st9" d="M418.5,152.4c1.1,2.3,2.1,5,3.1,7.4c1.1,2.7,2.2,5.9,5.4,5c2.4-0.7,2.9-4.1,3.6-6.9     c1.9-7.1,4.4-14.8,6.4-22.1l4.2-14.8c-1.3,0-2.3,0.2-3.7,0.3c-1.3,0.1-2.4,0.2-3.8,0.4l-22.4,2.2c-2.7,0.3-4.8,0.4-7.4,0.7     c-1.3,0.2-2.5,0.2-3.8,0.4c-1.1,0.1-2.7,0.1-3.8,1.2c-3.2,3.1,1,5.6,2.5,6.6c2.5,1.8,5,3.2,7.5,5c-9.9,4.7-21.7,4.9-30,3.2     c-11-2.2-20.5-7.3-29.6-17.7L333.1,136c11.9,12.8,25.9,21.4,42.5,23.5c3.6,0.5,7.1,0.8,10.6,0.7l3.9-0.1     c4.9-0.1,12.8-1.8,17.6-3.4c1.9-0.6,3.5-1.2,5.3-2C414.5,154.2,417.1,152.8,418.5,152.4L418.5,152.4z"/>
			<path class="st10" d="M425.9,166c-2.9,0-4.1-3.1-5.1-5.4l-0.2-0.4c-0.3-0.8-0.6-1.6-1-2.4c-0.6-1.4-1.1-2.8-1.7-4.2     c-0.6,0.2-1.3,0.6-2,0.9c-1,0.5-1.9,0.9-2.7,1.1c-1.7,0.8-3.3,1.4-5.3,2c-4.8,1.6-12.9,3.3-17.9,3.4l-3.9,0.1     c-3.2,0.1-6.6-0.1-10.8-0.7c-15.8-2-30.3-10-43.1-23.8l-0.7-0.7l15.1-14.1l0.7,0.8c8.5,9.7,17.4,15.1,29,17.4     c7.3,1.5,18.2,1.6,27.8-2.4c-0.8-0.5-1.5-1-2.3-1.5c-1.2-0.8-2.5-1.6-3.8-2.5l-0.2-0.1c-1.3-0.8-3.7-2.4-3.9-4.7     c-0.1-1.2,0.4-2.3,1.5-3.3c1.2-1.2,2.9-1.4,4-1.4l0.4,0c0.6-0.1,1.3-0.2,1.9-0.2c0.6,0,1.2-0.1,1.8-0.2c1.4-0.2,2.6-0.3,3.8-0.4     c1.1-0.1,2.3-0.2,3.6-0.3l22.4-2.2c1.3-0.2,2.4-0.3,3.8-0.4c0.5,0,1-0.1,1.4-0.1c0.8-0.1,1.5-0.2,2.3-0.2h1.3l-4.6,16.1     c-1,3.5-2,7.1-3.1,10.6c-1.1,3.8-2.3,7.8-3.3,11.5c-0.1,0.3-0.2,0.6-0.2,1c-0.6,2.7-1.4,5.8-4,6.6     C426.8,165.9,426.3,166,425.9,166z M419,151.2l0.4,0.8c0.8,1.6,1.5,3.4,2.2,5.1c0.3,0.8,0.6,1.6,0.9,2.3l0.2,0.4     c1.3,3.1,2.1,4.5,4,4c1.5-0.5,2.1-2.8,2.7-5.2c0.1-0.3,0.2-0.7,0.2-1c1-3.8,2.2-7.7,3.3-11.6c1-3.5,2.1-7.1,3.1-10.5l3.8-13.5     c-0.3,0-0.5,0.1-0.8,0.1c-0.5,0.1-1,0.1-1.5,0.1c-1.4,0.1-2.4,0.2-3.7,0.4l-22.4,2.2c-1.3,0.1-2.5,0.2-3.7,0.3     c-1.2,0.1-2.4,0.2-3.7,0.4c-0.6,0.1-1.3,0.2-1.9,0.2c-0.6,0-1.2,0.1-1.8,0.2l-0.4,0c-1,0.1-2.1,0.2-2.8,0.9     c-0.6,0.6-0.9,1.2-0.9,1.7c0.1,1.3,2.1,2.6,3,3.2l0.2,0.2c1.3,0.9,2.5,1.7,3.7,2.5c1.2,0.8,2.5,1.6,3.8,2.5l1.4,1l-1.5,0.7     c-10.4,4.9-22.6,4.9-30.6,3.3c-11.6-2.3-21-7.8-29.5-17.2L334.5,136c12.3,13,26.2,20.6,41.2,22.5c4,0.6,7.4,0.8,10.4,0.7l3.9-0.1     c4.8-0.1,12.6-1.8,17.3-3.3c1.9-0.6,3.5-1.2,5.2-2c0.7-0.3,1.7-0.7,2.6-1.1c1.1-0.5,2.2-1,3.1-1.3L419,151.2z"/>
		</g>
	</g>
	<g>
		<g>
			
				<radialGradient id="SVGID_9_" cx="592.2479" cy="1484.9642" r="55.8596" fx="604.9288" fy="1468.684" gradientTransform="matrix(1 0 0 1 0 -1374)" gradientUnits="userSpaceOnUse">
				<stop offset="0" style="stop-color:#FFC85F"/>
				<stop offset="1" style="stop-color:#FF7A00"/>
			</radialGradient>
			<path class="st11" d="M544.4,135.9c-3-26.9,33.1-113.7,76.4-80c14.4,11.2,50.5,136.1-39,115.5C562.8,167,547.4,162.8,544.4,135.9     L544.4,135.9z"/>
			<path class="st1" d="M600.2,174c-5.6,0-11.8-0.8-18.5-2.3c-17.8-4.1-34.5-8-37.6-35.7c-2.1-19.2,15.5-69.1,41.9-83.8     c11.7-6.6,23.5-5.3,34.9,3.6c9.6,7.5,29.2,65.9,14,97.9C628.5,167.2,616.9,174,600.2,174z M544.7,135.9     c3.1,27.4,19.6,31.2,37.2,35.3c26.4,6.1,44.1,0.1,52.6-17.8c15.1-31.8-4.3-89.8-13.9-97.2c-11.3-8.8-22.8-10-34.3-3.5     C560.1,67.3,542.6,116.8,544.7,135.9z"/>
		</g>
	</g>
	<g>
		<g>
			
				<radialGradient id="SVGID_10_" cx="684.3657" cy="1483.6183" r="53.6818" fx="695.2997" fy="1459.8268" gradientTransform="matrix(1 0 0 1 0 -1374)" gradientUnits="userSpaceOnUse">
				<stop offset="0" style="stop-color:#FFC65F"/>
				<stop offset="1" style="stop-color:#FF7A00"/>
			</radialGradient>
			<path class="st12" d="M640,123c-3.1-27.8,21.5-100.4,66.2-65.5C721,69.1,759.7,166.9,682,171C661.9,172,643,150.8,640,123     L640,123z"/>
			<path class="st1" d="M680.6,171.3c-19.8,0-38-21.3-40.9-48.3l0,0c-1.1-10,1.4-25.1,6.3-38.4c5.9-16,14.5-27.8,24.2-33.2     c11.1-6.2,23.3-4.2,36.2,5.9c4.7,3.7,12.2,16.3,17.5,33.4c3.5,11.2,8.5,32.7,2.7,50.9c-5.8,18.5-20.9,28.5-44.6,29.7     C681.6,171.3,681.1,171.3,680.6,171.3z M683.3,48.5c-4.4,0-8.7,1.1-12.8,3.5c-9.6,5.3-18,17-23.9,32.9     c-4.9,13.3-7.4,28.3-6.3,38.2l0,0c2.9,27.3,21.7,48.7,41.7,47.7c23.5-1.2,38.4-11.1,44.1-29.3c10.1-31.9-11.1-76.6-20.1-83.7     C698.1,51.6,690.5,48.5,683.3,48.5z"/>
		</g>
	</g>
	<g>
		<path class="st1" d="M593.7,89.1l-0.9-3.1H588l-0.9,3.1h-2.9l4.6-12.9h3.3l4.6,12.9H593.7z M592.1,83.7c-0.9-2.8-1.4-4.3-1.5-4.7    c-0.1-0.4-0.2-0.7-0.2-0.9c-0.2,0.8-0.8,2.6-1.7,5.6H592.1z"/>
	</g>
	<g>
		<path class="st1" d="M668.7,74.7h4c1.8,0,3.2,0.3,4,0.8s1.2,1.3,1.2,2.5c0,0.8-0.2,1.4-0.5,1.9s-0.8,0.8-1.4,0.9v0.1    c0.8,0.2,1.4,0.5,1.8,1c0.4,0.5,0.5,1.2,0.5,2c0,1.2-0.4,2.1-1.3,2.7s-2,1-3.5,1h-4.8V74.7L668.7,74.7z M671.4,79.8h1.6    c0.7,0,1.3-0.1,1.6-0.3c0.3-0.2,0.5-0.6,0.5-1.1s-0.2-0.8-0.5-1.1c-0.4-0.2-0.9-0.3-1.7-0.3h-1.4L671.4,79.8L671.4,79.8z     M671.4,82v3.4h1.8c0.8,0,1.3-0.1,1.7-0.4s0.5-0.7,0.5-1.3c0-1.1-0.8-1.6-2.3-1.6L671.4,82L671.4,82z"/>
	</g>
	<g>
		<path d="M397.1,179.1c0,3-0.5,5.6-1.6,7.6s-2.6,3.5-4.7,4.5l6.2,6.9h-7l-4.7-5.8h-0.4c-3.9,0-7-1.1-9.1-3.4s-3.2-5.6-3.2-9.8    s1.1-7.5,3.2-9.8s5.1-3.4,9.1-3.4s7,1.1,9.1,3.4S397.1,174.8,397.1,179.1z M378.3,179.1c0,2.9,0.5,5,1.6,6.5s2.7,2.2,4.9,2.2    c4.3,0,6.5-2.9,6.5-8.7s-2.2-8.7-6.5-8.7c-2.2,0-3.8,0.7-4.9,2.2C378.9,174.1,378.3,176.2,378.3,179.1z"/>
	</g>
	<g>
		<path class="st1" d="M362.8,38.7h-2.7l2.2-10.6h-3.1l0.5-2.3h8.9l-0.5,2.3H365L362.8,38.7z"/>
		<path class="st1" d="M372.3,42.6h-2.8l-1,2h-1.9l4.5-8.6h2.2l0.9,8.6h-1.7L372.3,42.6z M372.2,41.1L372,39c0-0.5-0.1-1-0.1-1.5    v-0.2c-0.2,0.5-0.4,1-0.6,1.5l-1.1,2.3C370.2,41.1,372.2,41.1,372.2,41.1z"/>
		<path class="st1" d="M380.5,34.8l5.7-2.5l-5.7-2.8v-2.1l8.4,4.4V33l-8.4,3.9V34.8z"/>
		<path class="st1" d="M399.3,38.7h-2.7l2.2-10.6h-3.1l0.5-2.3h8.9l-0.5,2.3h-3.1L399.3,38.7z"/>
		<path class="st1" d="M408.4,36.1c0.9,0,1.6,0.2,2,0.5c0.5,0.3,0.7,0.8,0.7,1.4c0,0.6-0.2,1.1-0.5,1.5s-0.8,0.6-1.4,0.8l0,0    c0.4,0.1,0.7,0.3,0.9,0.6s0.4,0.6,0.4,1.1c0,0.9-0.3,1.6-0.9,2.1s-1.4,0.7-2.5,0.7H404l1.8-8.6L408.4,36.1L408.4,36.1z     M406.2,43.2h1.1c0.5,0,0.8-0.1,1.1-0.3s0.4-0.5,0.4-0.9c0-0.6-0.4-0.9-1.1-0.9h-1L406.2,43.2z M407,39.5h0.9    c0.5,0,0.8-0.1,1.1-0.3c0.2-0.2,0.4-0.5,0.4-0.8c0-0.5-0.3-0.8-1-0.8h-0.9L407,39.5z"/>
	</g>
	<g>
		<path class="st1" d="M622.9,38.4h-2.7l2.2-10.6h-3.1l0.5-2.3h8.9l-0.5,2.3h-3.1L622.9,38.4z"/>
		<path class="st1" d="M632.4,42.3h-2.8l-1,2h-1.9l4.5-8.6h2.2l0.9,8.6h-1.7L632.4,42.3z M632.4,40.8l-0.2-2.1c0-0.5-0.1-1-0.1-1.5    V37c-0.2,0.5-0.4,1-0.6,1.5l-1.1,2.3C630.4,40.8,632.4,40.8,632.4,40.8z"/>
		<path class="st1" d="M640.7,31.3v-1.9h8.4v1.9H640.7z M640.7,34.7v-1.9h8.4v1.9H640.7z"/>
		<path class="st1" d="M659.4,38.4h-2.7l2.2-10.6h-3.1l0.5-2.3h8.9l-0.5,2.3h-3.1L659.4,38.4z"/>
		<path class="st1" d="M668.6,35.8c0.9,0,1.6,0.2,2,0.5c0.5,0.3,0.7,0.8,0.7,1.4c0,0.6-0.2,1.1-0.5,1.5s-0.8,0.6-1.4,0.8l0,0    c0.4,0.1,0.7,0.3,0.9,0.6s0.3,0.6,0.3,1.1c0,0.9-0.3,1.6-0.9,2.1c-0.6,0.5-1.4,0.7-2.5,0.7h-3.1l1.8-8.6L668.6,35.8L668.6,35.8z     M666.4,42.9h1.1c0.5,0,0.8-0.1,1.1-0.3s0.4-0.5,0.4-0.9c0-0.6-0.4-0.9-1.1-0.9h-1L666.4,42.9z M667.2,39.2h0.9    c0.5,0,0.8-0.1,1.1-0.3c0.2-0.2,0.4-0.5,0.4-0.8c0-0.5-0.3-0.8-1-0.8h-0.9L667.2,39.2z"/>
	</g>
</g>
</svg>
